<svg width="48" height="72" viewBox="0 0 48 72" fill="none" xmlns="http://www.w3.org/2000/svg">
<path d="M22.9395 71.5605L0.439487 49.0605C-0.146497 48.4746 -0.146497 47.5253 0.439487 46.9395C1.02547 46.3535 1.97469 46.3535 2.56053 46.9395L22.5 66.879L22.5 1.50005C22.5 0.670924 23.171 2.00504e-06 24.0001 2.07678e-06C24.8292 2.14853e-06 25.5001 0.670924 25.5001 1.50005L25.5001 66.879L45.4395 46.9395C46.0255 46.3535 46.9747 46.3535 47.5605 46.9395C47.8535 47.2324 48 47.6163 48 48.0001C48 48.3839 47.8535 48.7676 47.5605 49.0607L25.0605 71.5607C24.4747 72.1465 23.5255 72.1465 22.9395 71.5605Z" fill="black"/>
</svg>
