<svg width="47" height="33" viewBox="0 0 47 33" fill="none" xmlns="http://www.w3.org/2000/svg">
<path d="M1.33503 33C0.598299 33 0 32.4113 0 31.6858V1.31416C0 0.588657 0.598299 0 1.33503 0H45.6649C46.2488 0 46.7635 0.372999 46.9392 0.920372C47.1128 1.47005 46.906 2.06535 46.4283 2.39389L24.2634 17.58C23.8322 17.8707 23.2709 17.8927 22.8216 17.6308L8.55597 9.33392C7.92071 8.96612 7.70984 8.15892 8.08554 7.5359C8.46212 6.91116 9.28067 6.70416 9.91358 7.07225L23.4419 14.9399L41.4099 2.62831H2.66976V31.6858C2.66976 32.4113 2.07205 33 1.33503 33Z" fill="#50545B"/>
</svg>
