<svg width="41" height="42" viewBox="0 0 41 42" fill="none" xmlns="http://www.w3.org/2000/svg">
<path d="M20.119 0.885742C9.02544 0.885742 0 9.91039 0 21.0071C0 25.3485 1.76393 29.2463 2.51968 30.7201C2.87342 31.4061 3.718 31.6785 4.40321 31.3253C5.09 30.9723 5.36022 30.1291 5.00727 29.4431C4.34142 28.1501 2.79705 24.7376 2.79705 21.0071C2.79705 11.4524 10.5682 3.68173 20.119 3.68173C29.6716 3.68173 37.4444 11.4524 37.4444 21.0071C37.4444 30.5581 29.6716 38.3285 20.119 38.3285C16.3835 38.3285 13.4149 37.0355 12.3128 36.4779C11.9866 36.3121 11.6056 36.2832 11.2574 36.397L2.45285 39.211C1.71753 39.4454 1.31128 40.2303 1.5449 40.9662C1.73715 41.5604 2.2858 41.9394 2.8766 41.9394C3.01847 41.9394 3.15981 41.9192 3.3038 41.8717L11.5777 39.2296C13.3069 40.0317 16.3554 41.1245 20.119 41.1245C31.2152 41.1245 40.2403 32.0996 40.2403 21.0071C40.2403 9.91039 31.2152 0.885742 20.119 0.885742Z" fill="#50545B"/>
<path d="M16.1533 17.574C15.5405 18.0447 15.4246 18.9206 15.8971 19.535C16.3668 20.1459 17.244 20.2637 17.8565 19.7909C18.285 19.4618 19.4226 18.5881 19.2564 17.0259C19.1537 16.0949 18.2461 14.8205 17.5041 13.9133C16.4174 12.5888 15.4975 11.8036 14.7731 11.583C14.0969 11.3711 13.4027 11.4042 12.7124 11.6824C11.29 12.2507 10.2861 13.192 9.80638 14.406C9.34285 15.5895 9.42744 16.9119 10.0538 18.2327C11.5099 21.3119 13.4605 23.9716 15.8468 26.1389C15.856 26.146 15.8664 26.1574 15.8751 26.1649C18.2959 28.3045 21.16 29.9544 24.3888 31.0655C25.0016 31.275 25.6028 31.38 26.1784 31.38C26.905 31.38 27.5929 31.2169 28.2184 30.8852C29.3717 30.2764 30.1979 29.1746 30.6061 27.696C30.8033 26.9784 30.7606 26.2866 30.4772 25.6411C30.1778 24.9432 29.2945 24.1159 27.8578 23.1814C26.8756 22.545 25.5089 21.7831 24.5688 21.7831H24.5667C23.0014 21.7903 22.256 23.0178 21.977 23.481C21.5777 24.1418 21.7872 25.0007 22.4496 25.4001C23.1077 25.8008 23.9672 25.5894 24.3665 24.9289C24.4787 24.7467 24.5484 24.6497 24.5946 24.5977C25.3816 24.8278 27.4937 26.2094 27.9259 26.7909C27.9331 26.8222 27.935 26.8678 27.9114 26.9548C27.7751 27.4531 27.4881 28.1094 26.9162 28.4135C26.3789 28.6962 25.7385 28.575 25.2973 28.4228C22.4239 27.4329 19.8822 25.9742 17.7398 24.0827C15.6184 22.1605 13.8818 19.7896 12.5782 17.0392C12.3786 16.616 12.1876 15.9941 12.4093 15.4296C12.6469 14.8266 13.2677 14.4694 13.7487 14.2777C13.8314 14.2453 13.8763 14.2395 13.9099 14.2453C14.5355 14.6112 16.14 16.5555 16.4561 17.3147C16.4103 17.3645 16.3222 17.4452 16.1533 17.574Z" fill="#50545B"/>
</svg>
