<svg width="34" height="48" viewBox="0 0 34 48" fill="none" xmlns="http://www.w3.org/2000/svg">
<mask id="path-1-inside-1_2_195" fill="white">
<path d="M24.937 18.0082C24.937 13.4481 21.2274 9.73975 16.668 9.73975C12.1082 9.73975 8.39923 13.4481 8.39923 18.0082C8.39923 19.8367 9.0163 21.5137 10.0259 22.884L18.5758 39.2085C18.7881 39.6111 19.1982 39.8404 19.6247 39.8404C19.8093 39.8404 19.997 39.7976 20.1722 39.7067C20.749 39.4019 20.972 38.6886 20.6707 38.1103L14.261 25.8772C15.0275 26.1124 15.8251 26.2769 16.668 26.2769C21.2274 26.2766 24.937 22.567 24.937 18.0082ZM11.2031 20.0399C11.1785 19.994 11.137 19.9647 11.1078 19.9232C10.8996 19.3187 10.7615 18.6822 10.7615 18.0082C10.7615 14.7508 13.4109 12.1023 16.6676 12.1023C19.9241 12.1023 22.5741 14.7508 22.5741 18.0082C22.5741 21.2646 19.9238 23.9143 16.6676 23.9143C14.7797 23.9143 13.1147 23.007 12.0331 21.6225L11.2031 20.0399Z"/>
</mask>
<path d="M24.937 18.0082C24.937 13.4481 21.2274 9.73975 16.668 9.73975C12.1082 9.73975 8.39923 13.4481 8.39923 18.0082C8.39923 19.8367 9.0163 21.5137 10.0259 22.884L18.5758 39.2085C18.7881 39.6111 19.1982 39.8404 19.6247 39.8404C19.8093 39.8404 19.997 39.7976 20.1722 39.7067C20.749 39.4019 20.972 38.6886 20.6707 38.1103L14.261 25.8772C15.0275 26.1124 15.8251 26.2769 16.668 26.2769C21.2274 26.2766 24.937 22.567 24.937 18.0082ZM11.2031 20.0399C11.1785 19.994 11.137 19.9647 11.1078 19.9232C10.8996 19.3187 10.7615 18.6822 10.7615 18.0082C10.7615 14.7508 13.4109 12.1023 16.6676 12.1023C19.9241 12.1023 22.5741 14.7508 22.5741 18.0082C22.5741 21.2646 19.9238 23.9143 16.6676 23.9143C14.7797 23.9143 13.1147 23.007 12.0331 21.6225L11.2031 20.0399Z" fill="#50545B"/>
<path d="M10.0259 22.884L12.6834 21.4921L12.5771 21.2891L12.4411 21.1045L10.0259 22.884ZM18.5758 39.2085L15.9182 40.6004L15.9221 40.6079L18.5758 39.2085ZM20.1722 39.7067L21.5539 42.3696L21.5638 42.3645L21.5737 42.3592L20.1722 39.7067ZM20.6707 38.1103L23.3313 36.7242L23.328 36.7179L20.6707 38.1103ZM14.261 25.8772L15.1413 23.0092L8.26574 20.8989L11.6037 27.2695L14.261 25.8772ZM16.668 26.2769V29.2769H16.6682L16.668 26.2769ZM11.2031 20.0399L13.8599 18.6465L13.8545 18.6364L13.8491 18.6262L11.2031 20.0399ZM11.1078 19.9232L8.27131 20.9002L8.41002 21.3029L8.65533 21.6511L11.1078 19.9232ZM12.0331 21.6225L9.37626 23.0158L9.50213 23.2558L9.66897 23.4694L12.0331 21.6225ZM27.937 18.0082C27.937 11.7908 22.8838 6.73975 16.668 6.73975V12.7397C19.571 12.7397 21.937 15.1054 21.937 18.0082H27.937ZM16.668 6.73975C10.4516 6.73975 5.39923 11.791 5.39923 18.0082H11.3992C11.3992 15.1052 13.7649 12.7397 16.668 12.7397V6.73975ZM5.39923 18.0082C5.39923 20.5283 6.25277 22.8204 7.61059 24.6634L12.4411 21.1045C11.7798 20.2069 11.3992 19.1451 11.3992 18.0082H5.39923ZM7.3683 24.2759L15.9182 40.6004L21.2333 37.8166L12.6834 21.4921L7.3683 24.2759ZM15.9221 40.6079C16.6743 42.0341 18.1302 42.8404 19.6247 42.8404V36.8404C20.2661 36.8404 20.9019 37.188 21.2294 37.8091L15.9221 40.6079ZM19.6247 42.8404C20.2744 42.8404 20.938 42.6891 21.5539 42.3696L18.7906 37.0438C19.0561 36.906 19.3442 36.8404 19.6247 36.8404V42.8404ZM21.5737 42.3592C23.6068 41.285 24.3963 38.7686 23.3313 36.7242L18.0101 39.4963C17.5477 38.6086 17.8912 37.5189 18.7707 37.0542L21.5737 42.3592ZM23.328 36.7179L16.9184 24.4848L11.6037 27.2695L18.0134 39.5026L23.328 36.7179ZM13.3808 28.7451C14.326 29.0352 15.4328 29.2769 16.668 29.2769V23.2769C16.2174 23.2769 15.729 23.1896 15.1413 23.0092L13.3808 28.7451ZM16.6682 29.2769C22.8841 29.2765 27.937 24.224 27.937 18.0082H21.937C21.937 20.9099 19.5707 23.2767 16.6678 23.2769L16.6682 29.2769ZM13.8491 18.6262C13.7393 18.4207 13.6243 18.26 13.5338 18.1457C13.4475 18.0366 13.3713 17.9552 13.3458 17.9281C13.3391 17.9209 13.3153 17.8957 13.3262 17.9073C13.3272 17.9084 13.3408 17.9227 13.359 17.9429C13.3948 17.9826 13.4728 18.0712 13.5602 18.1953L8.65533 21.6511C8.75742 21.796 8.85154 21.9038 8.90413 21.9621C8.93068 21.9915 8.95283 22.0151 8.96244 22.0252C8.96508 22.028 8.96739 22.0305 8.96893 22.0321C8.96971 22.0329 8.97045 22.0337 8.97094 22.0342C8.97151 22.0348 8.97184 22.0352 8.97212 22.0355C8.97351 22.037 8.97159 22.0349 8.96858 22.0317C8.96023 22.0228 8.90084 21.9599 8.83009 21.8706C8.75517 21.776 8.65456 21.6361 8.55702 21.4535L13.8491 18.6262ZM13.9442 18.9462C13.8137 18.5674 13.7615 18.2673 13.7615 18.0082H7.7615C7.7615 19.097 7.9854 20.0701 8.27131 20.9002L13.9442 18.9462ZM13.7615 18.0082C13.7615 16.4081 15.0674 15.1023 16.6676 15.1023V9.10233C11.7545 9.10233 7.7615 13.0935 7.7615 18.0082H13.7615ZM16.6676 15.1023C18.2679 15.1023 19.5741 16.4084 19.5741 18.0082H25.5741C25.5741 13.0932 21.5802 9.10233 16.6676 9.10233V15.1023ZM19.5741 18.0082C19.5741 19.6074 18.2672 20.9143 16.6676 20.9143V26.9143C21.5803 26.9143 25.5741 22.9217 25.5741 18.0082H19.5741ZM16.6676 20.9143C15.7736 20.9143 14.955 20.4897 14.3971 19.7756L9.66897 23.4694C11.2743 25.5242 13.7857 26.9143 16.6676 26.9143V20.9143ZM14.6899 20.2291L13.8599 18.6465L8.54627 21.4332L9.37626 23.0158L14.6899 20.2291Z" fill="#50545B" mask="url(#path-1-inside-1_2_195)"/>
<path d="M32.6658 21.0287C32.8416 20.4585 32.9705 20.1402 33.0318 19.6641C33.2152 18.6749 33.3366 17.6849 33.3366 16.7067C33.3366 7.51523 25.8604 0.0390625 16.6686 0.0390625C7.47711 0.0390625 0 7.51523 0 16.7067C0 17.9786 0.160713 19.2703 0.468931 20.5532C0.703869 21.1045 0.547244 20.8007 0.703869 21.1045C4.02885 27.5563 13.8428 46.9935 13.8428 46.9935C14.0544 47.3977 14.4652 47.6285 14.891 47.6285C15.0756 47.6285 15.2628 47.5854 15.437 47.4933C16.0154 47.192 16.2387 46.4781 15.9374 45.9L3.00921 20.9403L2.87177 20.4421C2.53399 19.2118 2.36258 17.955 2.36258 16.7064C2.36258 8.81793 8.77918 2.40165 16.6683 2.40165C24.5558 2.40165 30.974 8.81793 30.974 16.7064C30.974 17.8619 30.9325 19.0608 30.5202 20.1654C29.4012 23.1598 24.7769 31.5896 24.7769 31.5896C24.4845 32.1727 24.7184 32.8816 25.3019 33.1753C25.4723 33.2615 25.6541 33.3014 25.8324 33.3014C26.263 33.3014 26.6816 33.063 26.8876 32.651L32.271 21.9417" fill="#50545B"/>
</svg>
